<svg width="720" height="480" viewBox="0 0 720 480" fill="none" xmlns="http://www.w3.org/2000/svg">
  <rect width="720" height="480" rx="36" fill="#F3E2C6"/>
  <circle cx="614" cy="106" r="46" fill="#F5A65B"/>
  <rect x="144" y="108" width="292" height="264" rx="18" fill="#1C5D52"/>
  <rect x="454" y="168" width="128" height="204" rx="18" fill="#2D7D6D"/>
  <rect x="184" y="148" width="54" height="54" rx="8" fill="#F8F1E5"/>
  <rect x="262" y="148" width="54" height="54" rx="8" fill="#F8F1E5"/>
  <rect x="340" y="148" width="54" height="54" rx="8" fill="#F8F1E5"/>
  <rect x="184" y="224" width="54" height="54" rx="8" fill="#F8F1E5"/>
  <rect x="262" y="224" width="54" height="54" rx="8" fill="#F8F1E5"/>
  <rect x="340" y="224" width="54" height="54" rx="8" fill="#F8F1E5"/>
  <rect x="184" y="300" width="54" height="54" rx="8" fill="#F8F1E5"/>
  <rect x="262" y="300" width="54" height="54" rx="8" fill="#F8F1E5"/>
  <rect x="340" y="300" width="54" height="54" rx="8" fill="#F8F1E5"/>
  <rect x="488" y="200" width="58" height="58" rx="8" fill="#F8F1E5"/>
  <rect x="488" y="286" width="58" height="58" rx="8" fill="#F8F1E5"/>
  <rect x="0" y="392" width="720" height="88" fill="#DA8359"/>
  <rect x="112" y="380" width="494" height="20" rx="10" fill="#214B45"/>
</svg>

